PathFileType  4	(X/Y/Z) C:\Users\antoi\Documents\MyRepositories\mobilecap\ResultsAnalysis
DataRate	CameraRate	NumFrames	NumMarkers	Units	OrigDataRate	OrigDataStartFrame	OrigNumFrames
100.0	100.0	4	51	mm	100.0	217	247
Frame#	Time	r_knee			r_shank_antsup			r_ankle			r_calc			r_5meta			r_toe			L_knee			L_shank_antsup			L_ankle			L_calc			L_5meta			L_toe			r_sh2			r_sh3			r_sh4			L_sh2			L_sh3			r_thigh1			r_thigh2			r_thigh3			r_thigh4			r_thigh5			L_thigh1			L_thigh2			L_thigh3			L_thigh4			r.ASIS			r.PSIS			L.ASIS			L.PSIS			C7			R_Shoulder			L_Shoulder			R_Sternum			L_Sternum			R_humerus			R_elbow_med			R_elbow_lat			R_forearm			R_wrist_radius			R_wrist_ulna			L_humerus			L_elbow_med			L_elbow_lat			L_forearm			L_wrist_radius			L_wrist_ulna			R_HJC			L_HJC			R_HJC_reg			L_HJC_reg			
		X1	Y1	Z1	X2	Y2	Z2	X3	Y3	Z3	X4	Y4	Z4	X5	Y5	Z5	X6	Y6	Z6	X7	Y7	Z7	X8	Y8	Z8	X9	Y9	Z9	X10	Y10	Z10	X11	Y11	Z11	X12	Y12	Z12	X13	Y13	Z13	X14	Y14	Z14	X15	Y15	Z15	X16	Y16	Z16	X17	Y17	Z17	X18	Y18	Z18	X19	Y19	Z19	X20	Y20	Z20	X21	Y21	Z21	X22	Y22	Z22	X23	Y23	Z23	X24	Y24	Z24	X25	Y25	Z25	X26	Y26	Z26	X27	Y27	Z27	X28	Y28	Z28	X29	Y29	Z29	X30	Y30	Z30	X31	Y31	Z31	X32	Y32	Z32	X33	Y33	Z33	X34	Y34	Z34	X35	Y35	Z35	X36	Y36	Z36	X37	Y37	Z37	X38	Y38	Z38	X39	Y39	Z39	X40	Y40	Z40	X41	Y41	Z41	X42	Y42	Z42	X43	Y43	Z43	X44	Y44	Z44	X45	Y45	Z45	X46	Y46	Z46	X47	Y47	Z47	X48	Y48	Z48	X49	Y49	Z49	X50	Y50	Z50	X51	Y51	Z51	

217	2.16000000	-177.86216	1002.44994	-381.15513	-148.90020	856.37278	-363.75160	-210.61098	489.12430	-335.29688	-258.31995	466.15793	-405.33533	-86.69433	407.59938	-289.25334	-37.88018	433.71279	-331.26874	-181.95829	981.52295	-819.27991	-153.78595	783.21988	-816.48808	-274.09511	498.31163	-794.16290	-304.32280	499.10693	-710.94867	-219.89695	352.22153	-856.53294	-148.01802	360.49559	-828.59359	-150.68657	742.49135	-354.81243	-220.36512	857.68172	-340.10559	-225.69899	746.39543	-321.96925	-233.66666	802.68035	-848.42148	-253.43636	685.19968	-829.68966	-190.78458	1303.17391	-390.93019	-160.25417	1195.37819	-376.39114	-216.25189	1155.90757	-374.14402	-291.84468	1269.15469	-432.24956	-263.49367	1156.96453	-404.83096	-155.37115	1286.88315	-812.73774	-135.26998	1154.32930	-821.82067	-264.77908	1274.33669	-810.97588	-241.69225	1139.36093	-827.92355	-174.69270	1575.70445	-483.10536	-353.45555	1589.90764	-577.25239	-169.37446	1551.72651	-746.59643	-350.73570	1585.50505	-668.39141	-225.04904	2075.09261	-651.10702	-157.30822	2029.33931	-477.41889	-161.04717	2016.96513	-813.58918	-104.82284	1966.98718	-611.79980	-101.78555	1967.08325	-654.99650	-253.48513	1815.09754	-344.42209	-392.87576	1731.80255	-343.79469	-351.81213	1766.79958	-272.22968	-196.12503	1622.70652	-311.12459	-135.20981	1568.30065	-336.63232	-147.52312	1550.82316	-304.17824	-220.92247	1757.58779	-929.86668	-341.87521	1700.41457	-923.52058	-293.49197	1704.84481	-993.43625	-144.81182	1567.73739	-946.54245	-98.75294	1526.52479	-914.87960	-106.04943	1512.78881	-945.25465	-245.08254	1474.19870	-511.20126	-245.05005	1460.41623	-708.19655	-237.34977	1483.97061	-518.16627	-232.14666	1475.54793	-692.54304	
218	2.17000000	-173.85113	995.80657	-381.20328	-145.74846	849.57714	-363.36330	-210.07426	483.20079	-334.11515	-258.79339	459.44915	-402.82507	-85.62551	402.59060	-288.22152	-37.51699	428.32515	-331.23937	-181.90008	974.33637	-820.13320	-153.12699	776.02115	-817.44430	-272.41742	490.72933	-795.69236	-302.78544	490.48137	-712.32082	-217.08811	346.02033	-859.34600	-145.35591	354.45265	-831.33754	-148.46524	735.75184	-354.10218	-217.32687	851.82026	-339.35147	-223.68490	740.49382	-321.49986	-233.01665	795.33815	-849.30134	-252.50442	677.86676	-830.75494	-189.38614	1296.22590	-391.20281	-158.40653	1188.63549	-376.30439	-214.27048	1148.76039	-374.63941	-289.73211	1261.52918	-433.97475	-261.23960	1149.50880	-405.95126	-155.08634	1279.52548	-813.99560	-135.33737	1146.85261	-822.76522	-264.53374	1267.30486	-812.11064	-241.85752	1132.06758	-828.59539	-173.89482	1568.57794	-484.44207	-353.05922	1581.80790	-578.44286	-169.44756	1544.68643	-747.81784	-350.62291	1577.80300	-669.56850	-226.70812	2068.00636	-651.54266	-158.54368	2022.57516	-478.21657	-163.15520	2009.60924	-813.88127	-105.91198	1959.14379	-613.29829	-103.46683	1960.11937	-656.40700	-253.39545	1806.53434	-347.04702	-391.74944	1722.07929	-346.53376	-350.18183	1756.34677	-274.63936	-193.27138	1615.08884	-317.19901	-131.87797	1561.89613	-344.04633	-143.68674	1542.54449	-313.46705	-220.60639	1750.32191	-928.46478	-341.33593	1692.34644	-921.84908	-292.38965	1695.97730	-991.23262	-143.03467	1560.89933	-940.61146	-96.78010	1520.75988	-908.10921	-103.84702	1506.50867	-938.12405	-244.08953	1466.73676	-512.51581	-244.43228	1453.03809	-709.51604	-236.05056	1476.04412	-519.60199	-231.38970	1468.38213	-693.93800	
219	2.18000000	-169.69021	988.28706	-380.96256	-142.49233	841.75109	-362.83793	-209.90506	476.35403	-332.69468	-259.53696	451.79204	-400.50133	-85.00449	396.62799	-287.14963	-37.49335	421.99914	-331.18158	-181.59808	966.21514	-821.08221	-152.39989	767.99889	-818.68605	-271.06863	482.45385	-797.45386	-302.00492	480.83002	-713.87839	-214.34121	339.52121	-862.73888	-142.85137	347.96645	-834.11220	-146.33010	727.90061	-353.41173	-213.98655	844.57951	-339.07475	-221.45698	733.65749	-320.64929	-232.26675	787.32545	-850.26748	-251.71272	669.78717	-831.88429	-187.91797	1288.22377	-391.40574	-156.09221	1180.92933	-376.35966	-211.79472	1140.68248	-375.07480	-287.41873	1252.94571	-435.10694	-258.59241	1141.09830	-406.63498	-154.69477	1271.15941	-815.50568	-135.23255	1138.49362	-823.93063	-264.21471	1259.08065	-813.26056	-241.83285	1123.73073	-829.30570	-172.82447	1560.54556	-486.02636	-352.63331	1572.61610	-579.54936	-169.82051	1536.64076	-749.44133	-350.55635	1569.00395	-670.78771	-228.34672	2059.87563	-652.12155	-159.72413	2014.73259	-479.16184	-164.82924	2001.92542	-814.66521	-107.45488	1951.16836	-614.09879	-107.13361	1950.96045	-661.88164	-253.18417	1797.22992	-349.24516	-390.48159	1711.50902	-348.75473	-348.63628	1745.38182	-276.82302	-190.22927	1607.17855	-322.51539	-128.43989	1555.00033	-351.04967	-139.69615	1534.38975	-321.51139	-220.27528	1742.04771	-926.99188	-340.76201	1683.36421	-920.55370	-291.19414	1686.32705	-989.53833	-141.19079	1553.55797	-935.17524	-94.82498	1514.28420	-901.48878	-101.52271	1499.61727	-931.52489	-242.81646	1458.29730	-513.99153	-243.92615	1444.62270	-710.99010	-234.58039	1467.05098	-521.25749	-230.60923	1460.14540	-695.65609	
220	2.19000000	-165.51207	979.85996	-380.52079	-139.16032	832.96041	-362.38920	-209.99501	468.59859	-331.17582	-260.41327	443.18488	-398.39609	-84.71904	389.69110	-285.98942	-37.74521	414.65019	-330.80458	-180.92232	957.13309	-822.23815	-151.60473	759.07725	-820.06727	-270.34282	473.51242	-799.15046	-301.99235	470.05058	-715.57116	-211.68887	332.85541	-866.82367	-140.55859	341.31050	-837.18510	-144.19143	719.09645	-352.88005	-210.36475	836.37660	-338.51495	-218.83763	725.82582	-319.32729	-231.53561	778.51706	-851.26164	-251.11230	660.89499	-833.25893	-186.20102	1279.22842	-391.74414	-153.39966	1172.35651	-376.46248	-208.89634	1131.74342	-375.26803	-285.01153	1243.46085	-435.71757	-255.58447	1131.75179	-406.91738	-154.23387	1261.80386	-817.04820	-134.95810	1129.29854	-825.22575	-263.78054	1249.74555	-814.41387	-241.52424	1114.41349	-830.13105	-172.03038	1551.36098	-487.43543	-352.22147	1562.42832	-580.55423	-170.04898	1527.69573	-751.15657	-350.50171	1559.13681	-671.88600	-230.00014	2050.75301	-652.81256	-160.87866	2005.78672	-480.35094	-166.31240	1993.64057	-815.29621	-109.14289	1942.27436	-615.16921	-109.97462	1940.95809	-665.71110	-252.66923	1787.08935	-350.96512	-389.03790	1700.12409	-350.47231	-347.12623	1733.70519	-278.71397	-187.07490	1598.63634	-327.23649	-124.90168	1547.52235	-357.40229	-135.48727	1526.51653	-327.96569	-219.94333	1732.72337	-925.68089	-340.10452	1673.61675	-919.87982	-289.94111	1675.78046	-988.31151	-139.34615	1545.51867	-930.34876	-92.95150	1507.08812	-895.09081	-99.14822	1492.12596	-925.40789	-241.64008	1448.73152	-515.47838	-243.38759	1435.26903	-712.48786	-233.28803	1457.12469	-522.73864	-229.99988	1450.83167	-697.35500	
